<svg width="24" height="22" fill="none" xmlns="http://www.w3.org/2000/svg"><path d="M20.5 15H7c-.5 0-.9-.3-1-.8L3.2 2H1c-.6 0-1-.4-1-1s.4-1 1-1h3c.5 0 .9.3 1 .8L5.8 4H23c.3 0 .6.2.8.4.2.2.2.6.2.9l-2.5 9c-.2.4-.6.7-1 .7zM7.8 13h12l1.9-7H6.3l1.5 7zm-.3 9C6.1 22 5 20.9 5 19.5S6.1 17 7.5 17s2.5 1.1 2.5 2.5S8.9 22 7.5 22zm0-3c-.3 0-.5.2-.5.5s.2.5.5.5.5-.2.5-.5-.2-.5-.5-.5zm12 3c-1.4 0-2.5-1.1-2.5-2.5s1.1-2.5 2.5-2.5 2.5 1.1 2.5 2.5-1.1 2.5-2.5 2.5zm0-3c-.3 0-.5.2-.5.5s.2.5.5.5.5-.2.5-.5-.2-.5-.5-.5z" fill="#F6921E"/></svg>