<svg width="122" height="18" fill="none" xmlns="http://www.w3.org/2000/svg"><path d="M0 17.76V.24h5.451c1.841 0 3.238.41 4.191 1.228.961.81 1.442 2.001 1.442 3.573 0 .89-.198 1.657-.594 2.299a3.496 3.496 0 01-1.623 1.407 3.075 3.075 0 011.83 1.36c.427.674.641 1.508.641 2.503 0 1.7-.472 2.984-1.417 3.85-.937.866-2.298 1.3-4.082 1.3H0zm3.561-7.617v4.68H5.84c.638 0 1.122-.196 1.453-.589.331-.393.497-.95.497-1.672 0-1.573-.573-2.379-1.72-2.419H3.56zm0-2.575h1.854c1.397 0 2.095-.718 2.095-2.154 0-.794-.161-1.363-.484-1.708-.323-.345-.848-.518-1.575-.518h-1.89v4.38zM25.602 10.576c0 2.35-.56 4.175-1.683 5.475C22.804 17.35 21.254 18 19.267 18c-1.978 0-3.533-.642-4.664-1.925-1.13-1.292-1.704-3.096-1.72-5.415V7.664c0-2.406.562-4.283 1.684-5.63C15.69.677 17.248 0 19.243 0c1.962 0 3.509.666 4.64 1.997 1.13 1.324 1.703 3.185 1.72 5.583v2.996zM22.03 7.64c0-1.58-.226-2.755-.678-3.525-.453-.77-1.155-1.155-2.108-1.155-.945 0-1.643.373-2.096 1.119-.452.738-.686 1.865-.702 3.38v3.117c0 1.532.23 2.663.69 3.393.46.722 1.171 1.083 2.132 1.083.929 0 1.62-.353 2.072-1.059.452-.714.682-1.816.69-3.309V7.64zM32.671 6.257L35.046.24h4.082l-4.143 8.687 4.24 8.831h-4.131l-2.423-6.124-2.41 6.124h-4.13l4.239-8.831L26.215.24h4.082l2.374 6.016zM49.383 10.612h-5.536v7.147h-3.562V.241h9.764v2.947h-6.202v4.488h5.535v2.936zM63.756 10.576c0 2.35-.562 4.175-1.684 5.475C60.958 17.35 59.407 18 57.42 18c-1.978 0-3.533-.642-4.663-1.925-1.13-1.292-1.704-3.096-1.72-5.415V7.664c0-2.406.561-4.283 1.684-5.63C53.843.677 55.4 0 57.395 0c1.963 0 3.51.666 4.64 1.997 1.13 1.324 1.704 3.185 1.72 5.583v2.996zM60.182 7.64c0-1.58-.226-2.755-.678-3.525-.452-.77-1.155-1.155-2.108-1.155-.945 0-1.643.373-2.095 1.119-.453.738-.687 1.865-.703 3.38v3.117c0 1.532.23 2.663.69 3.393.46.722 1.172 1.083 2.133 1.083.928 0 1.619-.353 2.07-1.059.453-.714.683-1.816.691-3.309V7.64zM70.91 11.358h-1.77v6.401h-3.56V.241h5.68c1.785 0 3.162.46 4.131 1.383.978.915 1.466 2.218 1.466 3.91 0 2.327-.852 3.955-2.556 4.886l3.09 7.17v.17h-3.829l-2.653-6.402zM69.14 8.41h2.024c.71 0 1.243-.232 1.599-.697.355-.474.533-1.103.533-1.89 0-1.756-.69-2.635-2.072-2.635h-2.083V8.41zM90.516 11.924c-.09 1.997-.654 3.51-1.696 4.536-1.042 1.027-2.512 1.54-4.41 1.54-1.994 0-3.524-.65-4.59-1.95-1.058-1.307-1.587-3.168-1.587-5.582V7.52c0-2.406.549-4.26 1.647-5.559C80.98.654 82.505 0 84.46 0c1.921 0 3.379.533 4.372 1.6 1.001 1.067 1.57 2.6 1.708 4.597h-3.574c-.032-1.236-.226-2.086-.58-2.551-.348-.474-.99-.71-1.927-.71-.953 0-1.627.333-2.023.998-.396.658-.606 1.745-.63 3.261v3.309c0 1.74.194 2.936.582 3.586.395.65 1.07.974 2.023.974.936 0 1.582-.224 1.938-.674.355-.457.557-1.279.605-2.466h3.562zM100.383 14.174h-4.858l-.945 3.585h-3.767L96.325.241h3.258l5.548 17.518h-3.803l-.945-3.585zm-4.082-2.948h3.294L97.948 4.98l-1.647 6.245zM110.698.24l3.331 12.67L117.348.24H122v17.52h-3.573v-4.741l.327-7.304-3.525 12.044h-2.423l-3.525-12.044.327 7.304v4.74h-3.561V.241h4.651z" fill="#F6921E"/></svg>