<svg width="20" height="20" fill="none" xmlns="http://www.w3.org/2000/svg"><path d="M16.3 4.8c0 .2 0 .3-.1.4-.1.1-.1.3-.3.4-.1.1-.2.2-.4.3-.1.1-.3.1-.4.1-.2 0-.3 0-.4-.1-.1-.1-.3-.1-.4-.3-.1-.1-.2-.2-.3-.4v-.4c0-.3.1-.6.3-.8.2-.2.5-.3.8-.3.3 0 .7 0 .9.3.2.2.3.5.3.8zM20 10l-.1 4.2c0 1.5-.6 3-1.7 4-1.1 1.1-2.5 1.7-4 1.7L10 20l-4.2-.1c-1.5 0-3-.6-4-1.7-1.1-1.1-1.7-2.5-1.7-4L0 10l.1-4.2c0-1.5.6-3 1.7-4C2.9.7 4.3.1 5.8.1L10 0l4.2.1c1.5 0 3 .6 4 1.7 1.1 1.1 1.7 2.5 1.7 4L20 10zm-1.9 0L18 5.8c0-1-.4-2-1.2-2.7-.7-.7-1.7-1.1-2.7-1.2H5.8c-1 0-2 .4-2.7 1.2-.7.7-1.2 1.7-1.2 2.7V10l.1 4.2c0 1 .4 2 1.2 2.7.7.7 1.7 1.1 2.7 1.2l4.2.1 4.2-.1c1 0 2-.4 2.7-1.2.7-.7 1.1-1.7 1.2-2.7l-.1-4.2zm-3 0c0 1.4-.5 2.7-1.5 3.6-1 .9-2.3 1.5-3.6 1.5-1.3 0-2.7-.5-3.6-1.5-.9-1-1.5-2.2-1.5-3.6s.5-2.7 1.5-3.6c1-.9 2.2-1.5 3.6-1.5s2.7.5 3.6 1.5c.9 1 1.5 2.2 1.5 3.6zm-1.8 0c0-.9-.3-1.7-1-2.3-.6-.6-1.4-1-2.3-1-.9 0-1.7.3-2.3 1-.6.7-1 1.4-1 2.3 0 .9.3 1.7 1 2.3.7.6 1.4 1 2.3 1 .9 0 1.7-.3 2.3-1 .6-.6 1-1.4 1-2.3z" fill="#999"/></svg>