<svg width="24" height="24" fill="none" xmlns="http://www.w3.org/2000/svg"><path d="M12 0C5.4 0 0 5.4 0 12s5.4 12 12 12 12-5.4 12-12S18.6 0 12 0zm9.5 15h-4.4c.2-1 .3-2 .3-3s-.1-2-.3-3h4.4c.3.9.5 2 .5 3s-.2 2.1-.5 3zM8.9 15c-.2-1-.3-2-.3-3s.1-2 .3-3h6.2c.2 1 .3 2 .3 3s-.1 2-.3 3H8.9zm5.6 2c-.6 1.6-1.4 3.1-2.5 4.4-1.1-1.3-2-2.8-2.5-4.4h5zm-12-2c-.3-.9-.5-2-.5-3s.2-2.1.5-3h4.4c-.2 1-.3 2-.3 3s.1 2 .3 3H2.5zm7-8c.5-1.6 1.4-3.1 2.5-4.4 1.1 1.3 2 2.8 2.5 4.4h-5zm11.1 0h-4c-.5-1.7-1.3-3.3-2.3-4.7 2.7.6 5 2.4 6.3 4.7zM9.7 2.3c-1 1.4-1.8 3-2.3 4.7h-4C4.7 4.7 7 2.9 9.7 2.3zM3.4 17h4c.5 1.7 1.3 3.3 2.3 4.7-2.7-.6-5-2.4-6.3-4.7zm10.9 4.7c1-1.4 1.8-3 2.3-4.7h4c-1.3 2.3-3.6 4.1-6.3 4.7z" fill="#F6921E"/></svg>