<svg width="230" height="66" fill="none" xmlns="http://www.w3.org/2000/svg"><path d="M91.6 43V23.094h6.152c2.078 0 3.655.465 4.73 1.394 1.085.92 1.627 2.274 1.627 4.06 0 1.013-.223 1.883-.67 2.612a3.95 3.95 0 01-1.832 1.6c.894.255 1.582.77 2.065 1.545.483.765.724 1.713.724 2.843 0 1.933-.533 3.391-1.599 4.375-1.057.985-2.593 1.477-4.608 1.477H91.6zm4.02-8.654v5.318h2.57c.72 0 1.266-.223 1.64-.67.374-.447.561-1.08.561-1.9 0-1.787-.648-2.703-1.942-2.748h-2.83zm0-2.926h2.09c1.578 0 2.366-.816 2.366-2.447 0-.903-.182-1.55-.547-1.942-.364-.392-.957-.588-1.777-.588h-2.133v4.977zM120.496 34.838c0 2.67-.634 4.744-1.9 6.22-1.258 1.477-3.008 2.215-5.25 2.215-2.234 0-3.988-.729-5.264-2.187-1.276-1.468-1.923-3.518-1.942-6.152v-3.405c0-2.734.634-4.867 1.901-6.398 1.267-1.54 3.026-2.31 5.277-2.31 2.215 0 3.96.756 5.237 2.269 1.276 1.504 1.923 3.618 1.941 6.344v3.404zm-4.033-3.336c0-1.796-.255-3.13-.766-4.006-.51-.875-1.303-1.312-2.379-1.312-1.066 0-1.855.423-2.365 1.271-.51.839-.775 2.12-.793 3.842v3.54c0 1.742.26 3.027.779 3.856.52.82 1.322 1.23 2.407 1.23 1.048 0 1.827-.4 2.337-1.202.511-.811.771-2.065.78-3.76v-3.459zM128.474 29.93l2.68-6.836h4.607l-4.675 9.87L135.871 43h-4.662l-2.735-6.959-2.72 6.959h-4.663l4.786-10.035-4.69-9.871h4.608l2.679 6.836zM147.335 34.879h-6.248V43h-4.019V23.094h11.019v3.35h-7v5.099h6.248v3.336zM163.558 34.838c0 2.67-.634 4.744-1.9 6.22-1.258 1.477-3.008 2.215-5.25 2.215-2.234 0-3.988-.729-5.264-2.187-1.276-1.468-1.923-3.518-1.942-6.152v-3.405c0-2.734.634-4.867 1.901-6.398 1.267-1.54 3.026-2.31 5.277-2.31 2.215 0 3.961.756 5.237 2.269 1.276 1.504 1.923 3.618 1.941 6.344v3.404zm-4.033-3.336c0-1.796-.255-3.13-.766-4.006-.51-.875-1.303-1.312-2.379-1.312-1.066 0-1.855.423-2.365 1.271-.51.839-.775 2.12-.793 3.842v3.54c0 1.742.26 3.027.779 3.856.52.82 1.322 1.23 2.407 1.23 1.048 0 1.827-.4 2.337-1.202.511-.811.771-2.065.78-3.76v-3.459zM171.632 35.727h-1.996V43h-4.02V23.094h6.413c2.014 0 3.568.524 4.662 1.572 1.102 1.04 1.654 2.52 1.654 4.443 0 2.644-.962 4.494-2.885 5.551l3.486 8.149V43h-4.32l-2.994-7.273zm-1.996-3.35h2.283c.802 0 1.404-.264 1.805-.793.401-.538.601-1.253.601-2.146 0-1.997-.779-2.995-2.337-2.995h-2.352v5.934zM193.761 36.37c-.1 2.269-.739 3.987-1.914 5.153-1.176 1.167-2.835 1.75-4.977 1.75-2.251 0-3.978-.738-5.181-2.214-1.195-1.486-1.792-3.6-1.792-6.344v-3.35c0-2.734.62-4.84 1.86-6.316 1.239-1.486 2.962-2.229 5.168-2.229 2.169 0 3.814.606 4.935 1.819 1.131 1.212 1.773 2.953 1.928 5.222h-4.033c-.037-1.403-.255-2.37-.656-2.898-.392-.538-1.117-.807-2.174-.807-1.076 0-1.837.379-2.283 1.135-.447.747-.684 1.982-.711 3.705v3.76c0 1.978.218 3.336.656 4.074.447.738 1.208 1.108 2.283 1.108 1.057 0 1.787-.256 2.188-.766.401-.52.629-1.454.683-2.803h4.02zM204.897 38.926h-5.482L198.349 43h-4.252l6.22-19.906h3.678L210.257 43h-4.293l-1.067-4.074zm-4.607-3.35h3.719l-1.86-7.096-1.859 7.096zM216.54 23.094l3.76 14.396 3.746-14.396h5.25V43h-4.034v-5.387l.37-8.299L221.653 43h-2.734l-3.979-13.686.369 8.3V43h-4.019V23.094h5.25zM61 66H5c-2.8 0-5-2.2-5-5V5c0-2.8 2.2-5 5-5h56c2.8 0 5 2.2 5 5v56c0 2.8-2.2 5-5 5zM5 2C3.3 2 2 3.3 2 5v56c0 1.7 1.3 3 3 3h56c1.7 0 3-1.3 3-3V5c0-1.7-1.3-3-3-3H5zm28 42c-6.1 0-11-4.9-11-11s4.9-11 11-11 11 4.9 11 11-4.9 11-11 11zm0-20c-5 0-9 4-9 9s4 9 9 9 9-4 9-9-4-9-9-9zm1-6V6c0-.6-.4-1-1-1s-1 .4-1 1v12c0 .6.4 1 1 1s1-.4 1-1zm0 42V48c0-.6-.4-1-1-1s-1 .4-1 1v12c0 .6.4 1 1 1s1-.4 1-1zM18 33c0-.6-.4-1-1-1H9c-.6 0-1 .4-1 1s.4 1 1 1h8c.6 0 1-.4 1-1zm40 0c0-.6-.4-1-1-1h-8c-.6 0-1 .4-1 1s.4 1 1 1h8c.6 0 1-.4 1-1zm-37.1-7c.3-.5.1-1.1-.4-1.4l-11-6.5c-.5-.2-1.1-.1-1.4.4-.2.5-.1 1.1.4 1.4l11 6.5c.2.1.3.1.5.1.3 0 .7-.2.9-.5zm25.6.4l11-6.5c.5-.3.6-.9.4-1.4-.3-.5-.9-.6-1.4-.4l-11 6.5c-.5.3-.6.9-.4 1.4.2.3.5.5.9.5.2 0 .3 0 .5-.1zm10.2 30.3c.4-.4.4-1 0-1.4l-5.9-5.9c-.4-.4-1-.4-1.4 0-.4.4-.4 1 0 1.4l5.9 5.9c.2.2.5.3.7.3.2 0 .5-.1.7-.3zM17.6 17.6c.4-.4.4-1 0-1.4l-6.9-6.9c-.4-.4-1-.4-1.4 0-.4.4-.4 1 0 1.4l6.9 6.9c.2.2.5.3.7.3.2 0 .5-.1.7-.3zm33.2-1l5.9-5.9c.4-.4.4-1 0-1.4-.4-.4-1-.4-1.4 0l-5.9 5.9c-.4.4-.4 1 0 1.4.2.2.5.3.7.3.2 0 .5-.1.7-.3zM10.7 56.7l6.9-6.9c.4-.4.4-1 0-1.4-.4-.4-1-.4-1.4 0l-6.9 6.9c-.4.4-.4 1 0 1.4.2.2.4.3.7.3.3 0 .5-.1.7-.3z" fill="#F6921E"/></svg>