<svg width="48" height="48" fill="none" xmlns="http://www.w3.org/2000/svg"><path d="M43 48H5c-2.8 0-5-2.2-5-5V5c0-2.8 2.2-5 5-5h38c2.8 0 5 2.2 5 5v38c0 2.8-2.2 5-5 5zM5 2C3.3 2 2 3.3 2 5v38c0 1.7 1.3 3 3 3h38c1.7 0 3-1.3 3-3V5c0-1.7-1.3-3-3-3H5zm19 30c-4.4 0-8-3.6-8-8s3.6-8 8-8 8 3.6 8 8-3.6 8-8 8zm0-14c-3.3 0-6 2.7-6 6s2.7 6 6 6 6-2.7 6-6-2.7-6-6-6zm1-5V5c0-.6-.4-1-1-1s-1 .4-1 1v8c0 .6.4 1 1 1s1-.4 1-1zm0 30v-8c0-.6-.4-1-1-1s-1 .4-1 1v8c0 .6.4 1 1 1s1-.4 1-1zM13 24c0-.6-.4-1-1-1H6c-.6 0-1 .4-1 1s.4 1 1 1h6c.6 0 1-.4 1-1zm30 0c0-.6-.4-1-1-1h-6c-.6 0-1 .4-1 1s.4 1 1 1h6c.6 0 1-.4 1-1zm-27.5-4.9c.3-.5.1-1.1-.4-1.4L7.2 13c-.5-.3-1.1-.1-1.4.4-.3.5-.1 1.1.4 1.4l7.9 4.7c.2.1.3.1.5.1.4 0 .7-.2.9-.5zm18.4.4l7.9-4.7c.5-.3.6-.9.4-1.4-.3-.5-.9-.6-1.4-.4l-7.9 4.7c-.5.3-.6.9-.4 1.4.2.3.5.5.9.5.1 0 .3 0 .5-.1zm7.8 22.2c.4-.4.4-1 0-1.4l-4.4-4.4c-.4-.4-1-.4-1.4 0-.4.4-.4 1 0 1.4l4.4 4.4c.2.2.5.3.7.3.2 0 .5-.1.7-.3zM12.8 12.8c.4-.4.4-1 0-1.4L7.7 6.3c-.4-.4-1-.4-1.4 0-.4.4-.4 1 0 1.4l5.1 5.1c.2.2.5.3.7.3.2 0 .5-.1.7-.3zm24.6-.7l4.4-4.4c.4-.4.4-1 0-1.4-.4-.4-1-.4-1.4 0L36 10.7c-.4.4-.4 1 0 1.4.2.2.5.3.7.3.2 0 .5-.1.7-.3zM7.7 41.7l5.1-5.1c.4-.4.4-1 0-1.4-.4-.4-1-.4-1.4 0l-5.1 5.1c-.4.4-.4 1 0 1.4.2.2.4.3.7.3.3 0 .5-.1.7-.3z" fill="#F6921E"/></svg>