<svg width="26" height="20" fill="none" xmlns="http://www.w3.org/2000/svg"><path d="M22 20H4c-2.2 0-4-1.8-4-4V4c0-2.2 1.8-4 4-4h18c2.2 0 4 1.8 4 4v12c0 2.2-1.8 4-4 4zM4 2c-1.1 0-2 .9-2 2v12c0 1.1.9 2 2 2h18c1.1 0 2-.9 2-2V4c0-1.1-.9-2-2-2H4zm9.6 9.4l8-5.6c.5-.3.6-.9.3-1.4-.3-.5-.9-.6-1.4-.3L13 9.3 5.6 4.2c-.5-.3-1.1-.2-1.4.2-.3.5-.2 1.1.2 1.4l8 5.6c.2.1.4.2.6.2.2 0 .4-.1.6-.2zm8.2 4.2c.3-.5.2-1.1-.3-1.4l-3.4-2.3c-.5-.3-1.1-.2-1.4.3-.3.5-.2 1.1.3 1.4l3.4 2.3c.2.1.4.2.6.2.3-.1.6-.2.8-.5zm-16.2.2L9 13.5c.5-.3.6-.9.3-1.4-.3-.5-.9-.6-1.4-.3l-3.4 2.3c-.5.3-.6.9-.3 1.4.2.4.5.5.8.5.2 0 .4-.1.6-.2z" fill="#F6921E"/></svg>