<svg width="22" height="22" fill="none" xmlns="http://www.w3.org/2000/svg"><g clip-path="url(#clip0_73_432)"><path d="M16.6 22c-2.8 0-6.2-2.1-10.4-6.3-6.4-6.4-7.9-11-4.5-14.4C2.4.7 3.2.3 4 .1c.9-.2 1.9.2 2.3 1l2.6 4.5c.4.7.4 1.5 0 2.2l-1 1.6v.1c.4.5 1.2 1.6 2.1 2.4.8.8 1.8 1.6 2.4 2.1h.1l1.8-1.1c.7-.4 1.5-.4 2.2 0l4.5 2.6c.8.5 1.2 1.4 1 2.3-.2.8-.6 1.5-1.3 2.2-1.2 1.4-2.6 2-4.1 2zM4.5 2c-.5.1-.9.4-1.3.8-1 1-3.5 3.5 4.5 11.6s10.6 5.5 11.6 4.5c.4-.4.7-.8.8-1.3 0-.1 0-.1-.1-.1l-4.5-2.6h-.1L13.6 16c-.8.5-1.7.4-2.4-.1s-1.7-1.4-2.6-2.3c-.9-.9-1.7-1.9-2.3-2.6-.5-.7-.6-1.6-.1-2.4l1.1-1.8v-.1L4.6 2.1c0-.1-.1-.1-.1-.1z" fill="#F6921E"/></g><defs><clipPath id="clip0_73_432"><path fill="#fff" d="M0 0h22v22H0z"/></clipPath></defs></svg>