<svg width="24" height="24" fill="none" xmlns="http://www.w3.org/2000/svg"><path d="M12 24c6.627 0 12-5.373 12-12S18.627 0 12 0 0 5.373 0 12s5.373 12 12 12z" fill="url(#paint0_linear_77_863)"/><path d="M5.4 11.88c3.48-1.56 5.88-2.52 6.96-3 3.36-1.44 4.08-1.68 4.56-1.68.12 0 .36 0 .48.12s.12.24.12.36v.48c-.24 1.92-.96 6.48-1.32 8.64-.12.84-.48 1.2-.84 1.2-.72.12-1.2-.48-1.92-.96-1.08-.72-1.68-1.08-2.64-1.8-1.2-.84-.36-1.2.24-1.92.24-.12 3.24-2.88 3.36-3.12v-.24c-.12-.12-.12 0-.24 0s-1.8 1.08-5.04 3.36c-.48.36-.96.48-1.32.48-.48 0-1.2-.24-1.92-.48s-1.32-.36-1.32-.84c0-.12.36-.36.84-.6z" fill="#fff"/><defs><linearGradient id="paint0_linear_77_863" x1="12" y1="0" x2="12" y2="23.76" gradientUnits="userSpaceOnUse"><stop stop-color="#2AABEE"/><stop offset="1" stop-color="#229ED9"/></linearGradient></defs></svg>