<svg width="24" height="26" fill="none" xmlns="http://www.w3.org/2000/svg"><g clip-path="url(#clip0_77_873)"><path d="M21.24 2.4c-.6-.6-3.12-2.4-8.88-2.4 0 0-6.72-.36-9.96 2.52C.72 4.44.12 7.08 0 10.32c-.12 3.24-.12 9.36 5.76 11.04v2.52s0 1.08.6 1.2c.84.24 1.32-.48 2.04-1.32.48-.48 1.08-1.2 1.44-1.68 4.08.36 7.2-.48 7.56-.6.84-.24 5.4-.84 6.24-6.96.84-6.24-.24-10.2-2.4-12.12zm.72 11.76c-.6 5.16-4.44 5.4-5.04 5.64-.24.12-3 .72-6.48.6 0 0-2.52 3.12-3.36 3.84-.12.12-.24.12-.36.12s-.12-.24-.12-.48v-4.2c-5.04-1.44-4.68-6.6-4.68-9.36s.6-4.92 2.16-6.48c2.76-2.52 8.4-2.16 8.4-2.16 4.8 0 7.08 1.44 7.56 1.92 1.68 1.68 2.64 5.28 1.92 10.56zm-7.2-3.72c-.12 0-.36-.12-.36-.36 0-1.08-.6-1.56-1.56-1.68-.12 0-.36-.12-.36-.36 0-.12.12-.36.36-.36 1.32.12 2.16.84 2.16 2.28.12.36 0 .48-.24.48zm1.68.6c-.24 0-.36-.12-.36-.36 0-1.08-.24-1.92-.96-2.64-.72-.72-1.56-1.08-2.76-1.2-.12 0-.36-.12-.24-.36s.12-.36.36-.24c1.32.12 2.4.6 3.24 1.44.72.72 1.08 1.8 1.08 3 0 .24-.24.36-.36.36zm1.68.6c-.12 0-.36-.12-.36-.36 0-1.92-.6-3.48-1.68-4.56-1.08-1.08-2.52-1.68-4.2-1.68-.24.12-.36 0-.36-.24 0-.12.12-.36.36-.36 1.8 0 3.48.6 4.68 1.8 1.2 1.2 1.92 2.88 1.92 5.04 0 .24-.24.36-.36.36zm-5.16 2.76s.48 0 .72-.24l.48-.6c.24-.24.72-.48 1.32-.24.36.24.84.48 1.2.72s1.08.84 1.08.84c.36.24.48.72.24 1.2s-.6.84-.96 1.2c-.36.24-.72.48-.96.48h-.12c-.12 0-.24 0-.48-.12-.48-.12-1.32-.48-2.76-1.32-.84-.48-1.56-.96-2.28-1.56-.6 0-.84-.36-1.2-.6-.36-.36-.6-.72-.96-1.08-.6-.72-1.08-1.44-1.56-2.28-.84-1.56-1.2-2.4-1.32-2.88 0-.12-.12-.24-.12-.48v-.12c0-.36.24-.6.48-.96.36-.36.72-.72 1.2-.96s.84-.12 1.2.24c0 0 .6.72.84 1.08.24.36.48.72.72 1.2.36.48.24.96-.12 1.2L9 9.6c-.24.24-.24.72-.24.72s.84 3.24 4.2 4.08z" fill="#7360F2"/></g><defs><clipPath id="clip0_77_873"><path fill="#fff" d="M0 0h24v25.2H0z"/></clipPath></defs></svg>