<svg width="24" height="24" fill="none" xmlns="http://www.w3.org/2000/svg"><path d="M12 0C5.4 0 0 5.4 0 12c0 2.64.84 5.04 2.28 7.08L.84 23.52l4.56-1.44C7.32 23.28 9.6 24 12 24c6.6 0 12-5.4 12-12S18.6 0 12 0z" fill="#5ACF5F"/><path d="M18.96 16.92c-.24.84-1.44 1.44-2.4 1.68-.6.12-1.44.24-4.2-.96-3.48-1.44-5.76-5.04-6-5.28-.12-.24-1.44-1.92-1.44-3.6 0-1.68.84-2.52 1.2-2.88.24-.24.72-.48 1.2-.48h.36c.36 0 .48 0 .72.6.24.72.96 2.4 1.08 2.64.12.12.12.36 0 .6.24.36.12.48-.12.6-.12.24-.36.36-.48.6s-.36.48-.12.72c.24.36.96 1.44 1.92 2.4 1.32 1.2 2.4 1.56 2.76 1.68.24.12.6.12.84-.12s.6-.72.96-1.2c.24-.36.6-.36.84-.24.36.12 2.04.96 2.4 1.08.36.12.6.24.72.36.12.36.12.96-.24 1.8z" fill="#FCFCFC"/></svg>