<svg width="22" height="24" fill="none" xmlns="http://www.w3.org/2000/svg"><g clip-path="url(#clip0_96_2619)"><path d="M19.5 4.2l-6-3.5C12-.2 10-.2 8.5.7l-6 3.5C1 5.1 0 6.7 0 8.5v6.9c0 1.8 1 3.5 2.5 4.4l6 3.5c.8.5 1.6.7 2.5.7.9 0 1.7-.2 2.5-.7l6-3.5c1.5-.9 2.5-2.6 2.5-4.4V8.5c0-1.8-1-3.4-2.5-4.3zm-10-1.8c.5-.3 1-.4 1.5-.4s1 .1 1.5.4l6 3.5c.2.1.3.2.5.4l-8 4.6-8-4.6c.2-.2.3-.3.5-.4l6-3.5zm-6 15.7c-.9-.5-1.5-1.5-1.5-2.6v-7c0-.1 0-.3.1-.5l7.9 4.6v9.2c-.2-.1-.3-.1-.5-.2l-6-3.5zM20 15.5c0 1.1-.6 2.1-1.5 2.6l-6 3.5c-.2.1-.3.1-.5.2v-9.2L19.9 8c.1.2.1.4.1.5v7z" fill="#F6921E"/></g><defs><clipPath id="clip0_96_2619"><path fill="#fff" d="M0 0h22v24H0z"/></clipPath></defs></svg>