<svg width="75" height="80" fill="none" xmlns="http://www.w3.org/2000/svg"><path d="M37.5 80c-.8 0-1.5-.7-1.5-1.5v-20c0-.8.7-1.5 1.5-1.5s1.5.7 1.5 1.5v20c0 .8-.7 1.5-1.5 1.5zM3 78.5v-20c0-.8-.7-1.5-1.5-1.5S0 57.7 0 58.5v20c0 .8.7 1.5 1.5 1.5S3 79.3 3 78.5zm27 0v-10c0-.8-.7-1.5-1.5-1.5s-1.5.7-1.5 1.5v10c0 .8.7 1.5 1.5 1.5s1.5-.7 1.5-1.5zm-9 0v-10c0-.8-.7-1.5-1.5-1.5s-1.5.7-1.5 1.5v10c0 .8.7 1.5 1.5 1.5s1.5-.7 1.5-1.5zm-9 0v-10c0-.8-.7-1.5-1.5-1.5S9 67.7 9 68.5v10c0 .8.7 1.5 1.5 1.5s1.5-.7 1.5-1.5zm63 0v-20c0-.8-.7-1.5-1.5-1.5s-1.5.7-1.5 1.5v20c0 .8.7 1.5 1.5 1.5s1.5-.7 1.5-1.5zm-9 0v-10c0-.8-.7-1.5-1.5-1.5s-1.5.7-1.5 1.5v10c0 .8.7 1.5 1.5 1.5s1.5-.7 1.5-1.5zm-9 0v-10c0-.8-.7-1.5-1.5-1.5s-1.5.7-1.5 1.5v10c0 .8.7 1.5 1.5 1.5s1.5-.7 1.5-1.5zm-9 0v-10c0-.8-.7-1.5-1.5-1.5s-1.5.7-1.5 1.5v10c0 .8.7 1.5 1.5 1.5s1.5-.7 1.5-1.5zm-9-32.8l7-44c.1-.4-.1-.9-.3-1.2-.3-.3-.8-.5-1.2-.5h-14c-.4 0-.9.2-1.1.5-.3.3-.4.8-.3 1.2l7 44c.1.7.7 1.3 1.5 1.3s1.3-.5 1.4-1.3zM42.7 3l-5.2 33-5.2-33h10.4z" fill="#F6921E"/></svg>