<svg width="80" height="64" fill="none" xmlns="http://www.w3.org/2000/svg"><g clip-path="url(#clip0_24_338)"><path d="M79.8 39.2C71 24.7 56.1 16 40 16 23.9 16 9 24.7.2 39.2c-.3.5-.3 1.1 0 1.6C9 55.3 23.9 64 40 64c16.1 0 31-8.7 39.8-23.2.3-.5.3-1.1 0-1.6zM51.7 20.7C55.1 23.9 57 28.4 57 33c0 9.4-7.6 17-17 17s-17-7.6-17-17c0-4.6 1.9-9.1 5.3-12.3C32.1 19.6 36 19 40 19c4 0 7.9.6 11.7 1.7zM40 61c-14.8 0-28.5-7.8-36.7-21 4.9-7.8 11.8-13.8 19.6-17.3C21 25.8 20 29.3 20 33c0 11 9 20 20 20s20-9 20-20c0-3.7-1-7.2-2.9-10.3C65 26.2 71.8 32.2 76.7 40 68.5 53.2 54.8 61 40 61zm0-17c6.1 0 11-4.9 11-11 0-5.9-4.6-10.7-10.4-11-.4 0-.9.1-1.2.5-.3.4-.5.7-.4 1.2v.4c0 2.2-1.8 4-4 4-.9 0-1.7-.3-2.4-.8-.3-.3-.8-.4-1.2-.3-.4.1-.8.4-1 .7-.9 1.6-1.4 3.4-1.4 5.3 0 6.1 4.9 11 11 11zm-7.6-13.5c.8.3 1.7.5 2.6.5 3.4 0 6.3-2.5 6.9-5.8 3.5.8 6.1 4 6.1 7.8 0 4.4-3.6 8-8 8s-8-3.6-8-8c0-.9.1-1.7.4-2.5zm6.6-21v-8c0-.8.7-1.5 1.5-1.5S42 .7 42 1.5v8c0 .8-.7 1.5-1.5 1.5S39 10.3 39 9.5zM25.4 3.1c-.2-.8.2-1.6 1-1.9.8-.2 1.6.2 1.9 1l2.3 7.6c.2.8-.2 1.6-1 1.9-.1 0-.3.1-.4.1-.6 0-1.2-.4-1.4-1.1l-2.4-7.6zM13.6 8.2c-.5-.7-.4-1.6.3-2.1s1.6-.4 2.1.3l4.8 6.4c.5.7.4 1.6-.3 2.1-.3.2-.6.3-.9.3-.5 0-.9-.2-1.2-.6l-4.8-6.4zm-8.1 8c-.6-.5-.7-1.5-.2-2.1.5-.6 1.5-.7 2.1-.2l3.9 3.4c.6.5.7 1.5.2 2.1-.3.3-.7.5-1.1.5-.3 0-.7-.1-1-.4l-3.9-3.3zM.2 22.5c.5-.7 1.4-.9 2.1-.4l2.4 1.5c.7.5.9 1.4.4 2.1-.3.4-.8.7-1.3.7-.3 0-.6-.1-.8-.2L.6 24.7c-.6-.5-.8-1.5-.4-2.2zM49.4 9.9l2.3-7.6c.2-.8 1.1-1.2 1.9-1 .8.2 1.2 1.1 1 1.9l-2.3 7.6c-.2.6-.8 1.1-1.4 1.1-.1 0-.3 0-.4-.1-.9-.3-1.4-1.1-1.1-1.9zm9.9 2.9L64 6.4c.5-.7 1.4-.8 2.1-.3.7.5.8 1.4.3 2.1l-4.8 6.4c-.3.4-.7.6-1.2.6-.3 0-.6-.1-.9-.3-.6-.5-.7-1.5-.2-2.1zm9.2 6.6c-.5-.6-.5-1.6.2-2.1l3.9-3.4c.6-.5 1.6-.5 2.1.2.5.6.5 1.6-.2 2.1l-3.9 3.4c-.3.2-.6.4-1 .4-.4-.1-.8-.3-1.1-.6zm6.8 4.2l2.4-1.5c.7-.5 1.6-.3 2.1.4s.3 1.6-.4 2.1L77 26.2c-.3.2-.5.2-.8.2-.5 0-1-.2-1.3-.7-.5-.7-.3-1.6.4-2.1z" fill="#F6921E"/></g><defs><clipPath id="clip0_24_338"><path fill="#fff" d="M0 0h80v64H0z"/></clipPath></defs></svg>