<svg width="80" height="80" fill="none" xmlns="http://www.w3.org/2000/svg"><path d="M40 46c8.8 0 16-7.2 16-16s-7.2-16-16-16-16 7.2-16 16 7.2 16 16 16zm0-29c7.2 0 13 5.8 13 13s-5.8 13-13 13-13-5.8-13-13 5.8-13 13-13zM25.6 63.4c.6.6.6 1.5 0 2.1l-14 14c-.3.3-.7.4-1.1.4-.4 0-.8-.1-1.1-.4L3 73.1V75c0 .8-.7 1.5-1.5 1.5S0 75.8 0 75v-6c0-.8.7-1.5 1.5-1.5h6c.8 0 1.5.7 1.5 1.5s-.7 1.5-1.5 1.5H4.6l5.9 5.9 12.9-12.9c.6-.6 1.6-.6 2.2-.1zM39 9.5v-8c0-.8.7-1.5 1.5-1.5S42 .7 42 1.5v8c0 .8-.7 1.5-1.5 1.5S39 10.3 39 9.5zM40.5 49c.8 0 1.5.7 1.5 1.5v8c0 .8-.7 1.5-1.5 1.5s-1.5-.7-1.5-1.5v-8c0-.8.7-1.5 1.5-1.5zm20-20.5h8c.8 0 1.5.7 1.5 1.5s-.7 1.5-1.5 1.5h-8c-.8 0-1.5-.7-1.5-1.5s.7-1.5 1.5-1.5zM10 30c0-.8.7-1.5 1.5-1.5h8c.8 0 1.5.7 1.5 1.5s-.7 1.5-1.5 1.5h-8c-.8 0-1.5-.7-1.5-1.5zm43.8-13.1c-.6-.6-.6-1.5 0-2.1l5.7-5.7c.6-.6 1.5-.6 2.1 0 .6.6.6 1.5 0 2.1l-5.7 5.7c-.3.3-.7.4-1.1.4-.4 0-.7-.1-1-.4zm-26.9 29l-5.7 5.7c-.2.3-.6.4-1 .4s-.8-.1-1.1-.4c-.6-.6-.6-1.5 0-2.1l5.7-5.7c.6-.6 1.5-.6 2.1 0 .6.6.6 1.5 0 2.1zm32.2 5.3l-5.7-5.7c-.6-.6-.6-1.5 0-2.1.6-.6 1.5-.6 2.1 0l5.7 5.7c.6.6.6 1.5 0 2.1-.3.3-.7.4-1.1.4-.4 0-.7-.1-1-.4zM18.8 10.9c-.6-.6-.6-1.5 0-2.1.6-.6 1.5-.6 2.1 0l5.7 5.7c.6.6.6 1.5 0 2.1-.3.3-.7.4-1.1.4-.4 0-.8-.1-1.1-.4l-5.6-5.7zm60.8 54.7l-14 14c-.3.3-.7.4-1.1.4-.4 0-.8-.1-1.1-.4L57 73.1V75c0 .8-.7 1.5-1.5 1.5S54 75.8 54 75v-6c0-.8.7-1.5 1.5-1.5h6c.8 0 1.5.7 1.5 1.5s-.7 1.5-1.5 1.5h-2.9l5.9 5.9 12.9-12.9c.6-.6 1.5-.6 2.1 0 .6.6.6 1.5.1 2.1zm-27-2.2c.6.6.6 1.5 0 2.1l-14 14c-.3.3-.7.4-1.1.4-.4 0-.8-.1-1.1-.4L30 73.1V75c0 .8-.7 1.5-1.5 1.5S27 75.8 27 75v-6c0-.8.7-1.5 1.5-1.5h6c.8 0 1.5.7 1.5 1.5s-.7 1.5-1.5 1.5h-2.9l5.9 5.9 12.9-12.9c.6-.6 1.6-.6 2.2-.1z" fill="#F6921E"/></svg>