<svg width="73" height="78" fill="none" xmlns="http://www.w3.org/2000/svg"><g clip-path="url(#clip0_22_332)"><path d="M53 44.5c0 .8-.7 1.5-1.5 1.5H43v11.5c0 .8-.7 1.5-1.5 1.5s-1.5-.7-1.5-1.5v-13c0-.8.7-1.5 1.5-1.5h10c.8 0 1.5.7 1.5 1.5zm19.7 33c-.3.3-.7.5-1.2.5h-70c-.4 0-.9-.2-1.2-.5-.3-.3-.4-.8-.3-1.2l10.1-52c.1-.7.8-1.2 1.5-1.2h13.1C23 20.6 22 17.6 22 14.5 22 6.5 28.5 0 36.5 0S51 6.5 51 14.5c0 3.1-1 6.1-2.8 8.5h13.1c.7 0 1.3.5 1.5 1.2l10.1 52c.2.5 0 .9-.2 1.3zm-3-2.5l-9.6-49H44.8c-.6 0-1.2-.4-1.4-1-.2-.6 0-1.3.5-1.7 2.6-2.2 4.2-5.4 4.2-8.8C48 8.2 42.8 3 36.5 3S25 8.2 25 14.5c0 3.4 1.5 6.7 4.2 8.8.5.4.7 1.1.5 1.7-.2.6-.8 1-1.4 1H12.9L3.3 75h66.4zM30 14.5c0-3.6 2.9-6.5 6.5-6.5s6.5 2.9 6.5 6.5-2.9 6.5-6.5 6.5-6.5-2.9-6.5-6.5zm3 0c0 1.9 1.6 3.5 3.5 3.5s3.5-1.6 3.5-3.5-1.6-3.5-3.5-3.5-3.5 1.6-3.5 3.5zm-2.8 35.6l5.2-4.5c.6-.5.7-1.5.2-2.1-.5-.6-1.5-.7-2.1-.2L27 48.9s-.1 0-.1.1l-.9.8v-5.3c0-.8-.7-1.5-1.5-1.5s-1.5.7-1.5 1.5v13c0 .8.7 1.5 1.5 1.5s1.5-.7 1.5-1.5v-3.8l1.9-1.6 6.5 6.5c.3.3.7.4 1.1.4.4 0 .8-.1 1.1-.4.6-.6.6-1.5 0-2.1l-6.4-6.4z" fill="#F6921E"/></g><defs><clipPath id="clip0_22_332"><path fill="#fff" d="M0 0h73v78H0z"/></clipPath></defs></svg>