<svg width="78" height="78" fill="none" xmlns="http://www.w3.org/2000/svg"><path d="M10 14c-2.2 0-4-1.8-4-4s1.8-4 4-4 4 1.8 4 4-1.8 4-4 4zm0-5c-.6 0-1 .4-1 1s.4 1 1 1 1-.4 1-1-.4-1-1-1zm58 5c-2.2 0-4-1.8-4-4s1.8-4 4-4 4 1.8 4 4-1.8 4-4 4zm0-5c-.6 0-1 .4-1 1s.4 1 1 1 1-.4 1-1-.4-1-1-1zM10 72c-2.2 0-4-1.8-4-4s1.8-4 4-4 4 1.8 4 4-1.8 4-4 4zm0-5c-.6 0-1 .4-1 1s.4 1 1 1 1-.4 1-1-.4-1-1-1zm58 5c-2.2 0-4-1.8-4-4s1.8-4 4-4 4 1.8 4 4-1.8 4-4 4zm0-5c-.6 0-1 .4-1 1s.4 1 1 1 1-.4 1-1-.4-1-1-1zm2-64c2.8 0 5 2.2 5 5v62c0 2.8-2.2 5-5 5H8c-2.8 0-5-2.2-5-5V8c0-2.8 2.2-5 5-5h62zm0-3H8C3.6 0 0 3.6 0 8v62c0 4.4 3.6 8 8 8h62c4.4 0 8-3.6 8-8V8c0-4.4-3.6-8-8-8zM21.7 42.8c0 .7-.5 1.2-1.2 1.2-.5 0-.9-.3-1.2-.9l-.3-.5h-3.4l-.2.5c-.2.6-.6.9-1.2.9-.7 0-1.2-.5-1.2-1.2 0-.2 0-.4.1-.6l3-7.4c.2-.5.6-.8 1.2-.8s1 .3 1.2.8l3 7.4c.1.2.2.4.2.6zm-5.3-2.2h1.9l-1-2.8-.9 2.8zm6.7 2.1v-7.5c0-.7.5-1.3 1.2-1.3s1.2.5 1.2 1.3v7.5c0 .7-.5 1.3-1.2 1.3s-1.2-.5-1.2-1.3zm4.5.2c-.3-.3-.5-.6-.5-1 0-.7.6-1.1 1.1-1.1.2 0 .4.1.6.2.2.1.8.8 1.8.8.7 0 1-.2 1-.7 0-.5-.3-.6-1-.9l-1-.4c-1.5-.7-2.4-1.5-2.4-2.9 0-1.7 1.5-2.9 3.4-2.9 1.7 0 2.5.8 2.7 1.1.2.2.3.5.3.7 0 .6-.6 1.1-1.1 1.1-.2 0-.4-.1-.6-.2-.3-.2-.6-.6-1.2-.6-.5 0-.9.2-.9.6 0 .4.2.5.8.8l1.1.5c1.6.7 2.5 1.5 2.5 2.9 0 1.9-1.5 3-3.5 3-1.1.1-2.4-.3-3.1-1zm8-.2v-7.5c0-.7.5-1.3 1.2-1.3s1.2.5 1.2 1.3v7.5c0 .7-.5 1.3-1.2 1.3s-1.2-.5-1.2-1.3zm15-2.1c0 1.9-1.6 3.4-3.7 3.4-1.3 0-2.5-.6-3.2-1.5-.1-.2-.2-.4-.2-.7 0-.6.5-1.1 1.1-1.1.3 0 .6.1.8.4.5.5.9.7 1.4.7.8 0 1.3-.4 1.3-1.1 0-.7-.5-1-1.7-1h-.2c-.7 0-1.1-.5-1.1-1.1 0-.4.2-.7.6-1.1l1.2-1h-2c-.7 0-1.1-.5-1.1-1.1 0-.6.5-1.1 1.1-1.1h4.4c.7 0 1.2.6 1.2 1.3 0 .4-.2.8-.6 1.1l-1.4 1.2c1.2.2 2.1 1.3 2.1 2.7zm5.4-5.3v7.5c0 .8-.4 1.3-1.2 1.3-.8 0-1.2-.5-1.2-1.3v-5.6l-.6.1c-.1.1-.3.1-.5.1-.7 0-1.2-.6-1.2-1.2 0-.5.3-.9.7-1.1l2.2-1.1c.2-.1.4-.1.5-.1.7.1 1.3.7 1.3 1.4zm9 5.1c0 2-1.6 3.6-3.7 3.6s-3.7-1.6-3.7-3.6c0-1.2.6-2.2 1.9-3.6l2.1-2.2c.4-.4.8-.6 1.1-.6.7 0 1.2.5 1.2 1.1 0 .3-.1.6-.4.9l-1.1 1.1c1.5.4 2.6 1.7 2.6 3.3zm-2.5 0c0-.7-.5-1.2-1.2-1.2s-1.2.5-1.2 1.2.5 1.3 1.2 1.3 1.2-.6 1.2-1.3z" fill="#F6921E"/></svg>