<svg width="80" height="80" fill="none" xmlns="http://www.w3.org/2000/svg"><path d="M76.7 41.1c-.4-.7-.4-1.6 0-2.3l2.7-5.6c1.2-2.5.4-5.6-1.9-7.1l-5.2-3.5c-.7-.5-1.1-1.2-1.1-2l-.4-6.2c-.2-2.8-2.4-5-5.2-5.2l-6.2-.4c-.8-.1-1.5-.5-2-1.1l-3.5-5.2C52.3.2 49.3-.6 46.8.6l-5.6 2.7c-.7.4-1.6.4-2.3 0L33.3.6c-2.5-1.2-5.6-.4-7.1 1.9l-3.5 5.2c-.5.7-1.2 1.1-2 1.1l-6.2.4c-2.8.2-5 2.4-5.2 5.2l-.4 6.2c-.1.8-.5 1.5-1.1 2l-5.2 3.5C.3 27.7-.5 30.7.7 33.2l2.7 5.6c.4.7.4 1.6 0 2.3L.7 46.7c-1.2 2.5-.4 5.6 1.9 7.1l5.2 3.5c.7.5 1.1 1.2 1.1 2l.4 6.2c.2 2.8 2.4 5 5.2 5.2l6.2.4c.8.1 1.5.5 2 1.1l3.5 5.2c1.1 1.6 2.9 2.5 4.7 2.5.8 0 1.7-.2 2.4-.6l5.6-2.7c.7-.4 1.6-.4 2.3 0l5.6 2.7c2.5 1.2 5.6.4 7.1-1.9l3.5-5.2c.5-.7 1.2-1.1 2-1.1l6.2-.4c2.8-.2 5-2.4 5.2-5.2l.4-6.2c.1-.8.5-1.5 1.1-2l5.2-3.5c2.3-1.6 3.1-4.6 1.9-7.1l-2.7-5.6zm-.9 10.3l-5.2 3.5c-1.4 1-2.3 2.5-2.5 4.3l-.4 6.2c-.1 1.3-1.1 2.3-2.4 2.4l-6.2.4c-1.7.1-3.3 1-4.3 2.5l-3.5 5.2c-.7 1.1-2.2 1.5-3.3.9L42.5 74c-1.6-.8-3.4-.8-4.9 0L32 76.7c-1.2.6-2.6.2-3.3-.9l-3.5-5.2c-1-1.4-2.5-2.3-4.3-2.5l-6.2-.4c-1.3-.1-2.3-1.1-2.4-2.4l-.4-6.2c-.1-1.7-1-3.3-2.5-4.3l-5.2-3.5c-1.1-.7-1.5-2.2-.9-3.3L6 42.5c.8-1.6.8-3.4 0-4.9L3.3 32c-.6-1.2-.2-2.6.9-3.3l5.2-3.5c1.4-1 2.3-2.5 2.5-4.3l.4-6.2c.1-1.3 1.1-2.3 2.4-2.4l6.2-.4c1.7-.1 3.3-1 4.3-2.5l3.5-5.2c.4-.8 1.2-1.2 2.1-1.2.4 0 .8.1 1.1.3L37.5 6c1.6.8 3.4.8 4.9 0L48 3.3c1.2-.6 2.6-.2 3.3.9l3.5 5.2c1 1.4 2.5 2.3 4.3 2.5l6.2.4c1.3.1 2.3 1.1 2.4 2.4l.4 6.2c.1 1.7 1 3.3 2.5 4.3l5.2 3.5c1.1.7 1.5 2.2.9 3.3L74 37.5c-.8 1.6-.8 3.4 0 4.9l2.7 5.6c.6 1.2.2 2.6-.9 3.4zM40 9C22.9 9 9 22.9 9 40s13.9 31 31 31 31-13.9 31-31S57.1 9 40 9zm0 59c-15.4 0-28-12.6-28-28s12.6-28 28-28 28 12.6 28 28-12.6 28-28 28zm-2-34.5v13c0 .8-.7 1.5-1.5 1.5s-1.5-.7-1.5-1.5v-5h-9v5c0 .8-.7 1.5-1.5 1.5s-1.5-.7-1.5-1.5v-13c0-.8.7-1.5 1.5-1.5s1.5.7 1.5 1.5v5h9v-5c0-.8.7-1.5 1.5-1.5s1.5.7 1.5 1.5zM49 32c-4.4 0-8 3.6-8 8s3.6 8 8 8c1.4 0 2.7-.4 3.9-1l1.6 1.6c.3.3.7.4 1.1.4.4 0 .8-.1 1.1-.4.6-.6.6-1.5 0-2.1l-1.4-1.4c1.1-1.4 1.8-3.1 1.8-5.1-.1-4.4-3.7-8-8.1-8zm0 13c-2.8 0-5-2.2-5-5s2.2-5 5-5 5 2.2 5 5c0 1.1-.4 2.1-1 2.9l-1.5-1.5c-.6-.6-1.5-.6-2.1 0-.6.6-.6 1.5 0 2.1l1.2 1.2c-.5.2-1 .3-1.6.3z" fill="#F6921E"/></svg>