<svg width="80" height="80" fill="none" xmlns="http://www.w3.org/2000/svg"><g clip-path="url(#clip0_22_330)"><path d="M24.5 12C17.6 12 12 17.6 12 24.5S17.6 37 24.5 37 37 31.4 37 24.5 31.4 12 24.5 12zm0 22c-5.2 0-9.5-4.3-9.5-9.5s4.3-9.5 9.5-9.5 9.5 4.3 9.5 9.5-4.3 9.5-9.5 9.5zM23 7.5v-6c0-.8.7-1.5 1.5-1.5S26 .7 26 1.5v6c0 .8-.7 1.5-1.5 1.5S23 8.3 23 7.5zm3 34v6c0 .8-.7 1.5-1.5 1.5s-1.5-.7-1.5-1.5v-6c0-.8.7-1.5 1.5-1.5s1.5.7 1.5 1.5zM41.5 23h6c.8 0 1.5.7 1.5 1.5s-.7 1.5-1.5 1.5h-6c-.8 0-1.5-.7-1.5-1.5s.7-1.5 1.5-1.5zm-34 3h-6C.7 26 0 25.3 0 24.5S.7 23 1.5 23h6c.8 0 1.5.7 1.5 1.5S8.3 26 7.5 26zm28-12.5c-.6-.6-.6-1.5 0-2.1l4.2-4.2c.6-.6 1.5-.6 2.1 0 .6.6.6 1.5 0 2.1l-4.2 4.2c-.3.3-.7.4-1.1.4-.4 0-.7-.1-1-.4zm-22 22c.6.6.6 1.5 0 2.1l-4.2 4.2c-.3.3-.7.4-1.1.4-.4 0-.8-.1-1.1-.4-.6-.6-.6-1.5 0-2.1l4.2-4.2c.7-.6 1.7-.6 2.2 0zm28.3 4.2c.6.6.6 1.5 0 2.1-.3.3-.7.4-1.1.4-.4 0-.8-.1-1.1-.4l-4.2-4.2c-.6-.6-.6-1.5 0-2.1.6-.6 1.5-.6 2.1 0l4.3 4.2zM7.2 9.3c-.6-.6-.6-1.5 0-2.1.6-.6 1.5-.6 2.1 0l4.2 4.2c.6.6.6 1.5 0 2.1-.3.3-.7.4-1.1.4-.4 0-.8-.1-1.1-.4L7.2 9.3zm72.6 60c-.3.4-.8.7-1.3.7-.3 0-.5-.1-.8-.2L74 67.6l.9 3.3c.2.8-.3 1.6-1.1 1.8h-.4c-.7 0-1.3-.4-1.5-1.1l-1.6-6.2-7.3-4.3v8.8l4.6 4.6c.6.6.6 1.5 0 2.1-.3.3-.7.4-1.1.4-.4 0-.8-.1-1.1-.4L63 74.1v4.4c0 .8-.7 1.5-1.5 1.5s-1.5-.7-1.5-1.5v-4.4l-2.4 2.4c-.6.6-1.5.6-2.1 0-.6-.6-.6-1.5 0-2.1l4.6-4.6V61l-7.4 4.4-1.7 6.3c-.2.7-.8 1.1-1.5 1.1h-.4c-.8-.2-1.3-1-1.1-1.8l.9-3.3-3.7 2.2c-.2 0-.4.1-.7.1-.5 0-1-.3-1.3-.7-.4-.7-.2-1.6.5-2.1l3.7-2.2-3.3-.9c-.8-.2-1.3-1-1.1-1.8.2-.8 1-1.3 1.8-1.1l6.1 1.7 7.5-4.4-7.5-4.4-5.9 1.7c-.1 0-.3.1-.4.1-.7 0-1.3-.4-1.4-1.1-.2-.8.3-1.6 1.1-1.8l3.3-.9-3.7-2.2c-.7-.4-1-1.3-.5-2.1s1.3-1 2.1-.5l3.7 2.2-.9-3.3c-.2-.8.3-1.6 1.1-1.8.8-.2 1.6.3 1.8 1.1l1.6 6.2 7.4 4.4v-8.8l-4.6-4.6c-.6-.6-.6-1.5 0-2.1.6-.6 1.5-.6 2.1 0l2.4 2.4v-4.4c0-.8.7-1.5 1.5-1.5s1.5.7 1.5 1.5V43l2.4-2.4c.6-.6 1.5-.6 2.1 0 .6.6.6 1.5 0 2.1L63 47.1v8.8l7.4-4.4 1.6-6.2c.2-.8 1-1.3 1.8-1.1.8.2 1.3 1 1.1 1.8l-.9 3.3 3.7-2.2c.7-.4 1.6-.2 2.1.5s.2 1.6-.5 2.1L75.5 52l3.3.9c.8.2 1.3 1 1.1 1.8-.2.7-.8 1.1-1.4 1.1-.1 0-.3 0-.4-.1L72 54l-7.5 4.4 7.5 4.4 6.1-1.7c.8-.2 1.6.3 1.8 1.1.2.8-.3 1.6-1.1 1.8l-3.3 1 3.7 2.2c.8.4 1 1.3.6 2.1z" fill="#F6921E"/></g><defs><clipPath id="clip0_22_330"><path fill="#fff" d="M0 0h80v80H0z"/></clipPath></defs></svg>