<svg width="80" height="56" fill="none" xmlns="http://www.w3.org/2000/svg"><path d="M72.5 56h-65C3.4 56 0 52.6 0 48.5v-41C0 3.4 3.4 0 7.5 0h65C76.6 0 80 3.4 80 7.5v41c0 4.1-3.4 7.5-7.5 7.5zM7.5 3C5 3 3 5 3 7.5v41C3 51 5 53 7.5 53h65c2.5 0 4.5-2 4.5-4.5v-41C77 5 75 3 72.5 3h-65zm33.9 32.6l32.1-27c.6-.5.7-1.5.2-2.1-.5-.6-1.5-.7-2.1-.2L40.4 32.5 8.5 6.3c-.7-.5-1.6-.4-2.2.2-.5.7-.4 1.6.2 2.2l32.9 27c.3.2.6.3 1 .3s.7-.1 1-.4zm32.2 13.9c.5-.6.5-1.6-.2-2.1L53.8 30.8c-.6-.5-1.6-.5-2.1.2-.5.6-.5 1.6.2 2.1l19.7 16.6c.3.2.6.4 1 .4.3-.1.8-.3 1-.6zm-65.1.2L28.7 33c.6-.5.7-1.5.2-2.1-.5-.6-1.5-.7-2.1-.2L6.5 47.3c-.6.5-.7 1.5-.2 2.1.3.4.8.6 1.2.6.3 0 .7-.1 1-.3z" fill="#F6921E"/></svg>