<svg width="80" height="80" fill="none" xmlns="http://www.w3.org/2000/svg"><g clip-path="url(#clip0_76_510)"><path d="M61.7 80c-1.5 0-3-.2-4.6-.5-9.2-1.9-20.3-9.4-33.7-22.9C9.9 43.2 2.4 32.1.5 22.9-1 15.8.8 9.8 6.1 4.6 8.4 2.3 10.9.8 13.5.2c2.5-.6 5.1.5 6.4 2.7L30 20.1c1.1 1.8 1.1 4.1 0 5.9l-4.1 6.8c-.6 1-.5 2.3.2 3.2 2 2.6 5.1 6.3 8.4 9.6 3.3 3.3 7 6.4 9.6 8.4.9.7 2.2.8 3.2.2l6.9-4.1c1.8-1.1 4.1-1.1 5.9 0 4.1 2.4 13.1 7.6 17.2 10.1 2.2 1.3 3.3 3.9 2.7 6.4-.6 2.6-2.1 5.1-4.4 7.4-4.2 4-8.8 6-13.9 6zM14.9 3c-.2 0-.5 0-.7.1-2.1.5-4.1 1.7-5.9 3.6-4.5 4.5-6.1 9.5-4.8 15.6 1.8 8.5 9.2 19.4 22.1 32.2 12.9 12.9 23.7 20.3 32.2 22.1 6.1 1.3 11-.2 15.6-4.8 1.9-1.9 3.1-3.9 3.6-6 .3-1.2-.2-2.5-1.3-3.1-4.1-2.4-13.1-7.6-17.2-10.1-.9-.5-2-.5-2.9 0l-6.8 4.1c-2.1 1.2-4.6 1.1-6.5-.4-2.6-2.1-6.5-5.2-9.9-8.6-3.4-3.4-6.6-7.2-8.6-9.9-1.5-1.9-1.6-4.5-.4-6.5l4.1-6.8c.5-.9.5-2 0-2.9L17.3 4.4c-.5-.9-1.5-1.4-2.4-1.4z" fill="#F6921E"/></g><defs><clipPath id="clip0_76_510"><path fill="#fff" d="M0 0h80v80H0z"/></clipPath></defs></svg>