<svg width="50" height="80" fill="none" xmlns="http://www.w3.org/2000/svg"><g clip-path="url(#clip0_77_853)"><path d="M25 80c-.6 0-1.1-.3-1.4-.9L1.9 33.7c-.1-.1-.1-.2-.1-.3-1.1-2.9-1.7-6.1-1.7-9C0 10.9 11.2 0 25 0c13.8 0 25 10.9 25 24.3 0 3.2-.6 6.3-1.8 9.2v.1c-.1.2-.2.4-.2.5l-.2.4-21.4 44.6c-.3.6-.8.9-1.4.9zM4.6 32.5l.3.6L25 75l20.2-42.2c0-.1.1-.2.1-.3v-.1c1.1-2.6 1.6-5.4 1.6-8.1C47 12.6 37.1 3 25 3 12.9 3 3 12.6 3 24.3c0 2.6.6 5.5 1.6 8.2 0-.1 0 0 0 0zM25 34c-5.5 0-10-4.5-10-10s4.5-10 10-10 10 4.5 10 10-4.5 10-10 10zm0-17c-3.9 0-7 3.1-7 7s3.1 7 7 7 7-3.1 7-7-3.1-7-7-7z" fill="#F6921E"/></g><defs><clipPath id="clip0_77_853"><path fill="#fff" d="M0 0h50v80H0z"/></clipPath></defs></svg>